<svg width="207" height="85" viewBox="0 0 207 85" fill="none" xmlns="http://www.w3.org/2000/svg">
<path d="M46.875 75.625V47.5H28.125V75.625H46.875ZM46.875 38.125V10H28.125V38.125H46.875ZM0 85V75.625H9.375V10H0V0.625H56.25V10H65.625V38.125H56.25V47.5H65.625V75.625H56.25V85H0Z" fill="black"/>
<path d="M112.5 47.5V19.375H93.75V47.5H112.5ZM75 85V19.375H84.375V10H93.75V0.625H112.5V10H121.875V19.375H131.25V85H112.5V56.875H93.75V85H75Z" fill="black"/>
<path d="M187.5 38.125V10H168.75V38.125H187.5ZM140.625 85V75.625H150V10H140.625V0.625H196.875V10H206.25V38.125H196.875V56.875H206.25V85H187.5V56.875H178.125V47.5H168.75V85H140.625Z" fill="black"/>
</svg>
