<svg width="596" height="175" viewBox="0 0 596 175" fill="none" xmlns="http://www.w3.org/2000/svg">
<path d="M0 100V164H10.5V156H18V149H23V135.5H26.5V117H54.5V135.5H59.5V145H70V135.5H77.5V172H84V174.5H96.5V167.5H104V145H109V121H113.5V111.5H121V124H127V143H135.5V156H144V160H160.5V147H158V113.5H155V63.5H158V35V12H160.5V0H150.5V8H144V3.5H132.5V27H127V70.5H123H119V65.5H113.5V57H109V46.5H104V38.5H96.5V33H77.5V75.5H72V69H64.5V54.5H59.5V45H30.5V51.5H18V63.5H12.5V81.5H6.5V100H0Z" fill="white"/>
<path d="M48 94.5H33V88H36.5V83H43.5V88H48V94.5Z" fill="black" stroke="black"/>
<path d="M179 122H166V104.5H163V98.5H160V57H166V39H172.5V33H198V39H203.5V44H209.5V51H215.5V57H226V82H229.5V98.5H226V112.5H219V116.5H206V94.5H182.5V112.5H179V122Z" fill="white"/>
<path d="M200 77.5H185V71H188.5V66H195.5V71H200V77.5Z" fill="black" stroke="black"/>
<path d="M235 148V16H284V22H296V28.5H309.5V48.5H306.5V59H302.5V70H296V76H302.5V83H308.5V88.5H313.5V28.5H320V22H337V40.5H344V34H356V28.5H374.5V32.5H372V36H368V39.5H365V44.5H360V47.5H357V53H353.5V56H349V60.5H353.5V65H357V68H359V71.5H362.5V76H374.5V46.5H380.5V40.5H386V35H393V42H400V66H396V77H405V70H438V77H447V80.5H453V88.5H459V70H443V66H435.5V63H430V47.5H585V52H595.5V58.5H576.5V63H494.5V66H482V125.5H477V136.5H453V118.5H459V113H453V105H447V110.5H438V113H443V118.5H447V134V148H438V152H430V155.5H416.5V152H400V148H393V142.5H387.5V136.5H380.5V125.5H422.5V118.5H416.5V113H410.5V108H400V105H393V91H390.5V98.5H387.5V105H383V110.5H376.5V116H361.5V98.5H359V93.5H354.5V91H351V84.5H345V80.5H341V77H338V73H334.5V88.5H329V96H323.5V102H329V108H334.5V116H341V134H334.5V130.5H329V125.5H323.5V120.5H318V116H309.5V110.5H302.5V105H294.5V98.5H286V93.5H280V88.5H273.5H267.5V139.5H259.5V162H249V155.5H242.5V148H235Z" fill="white"/>
<path d="M269 53V36H273.5V41H279.5V47H284.5V53H269Z" fill="black"/>
<path d="M393 26.5V21H400V14.5H406V3H415V33H404.5V30.5H400V26.5H393Z" fill="white"/>
<path d="M419 93.5V84H424V88H430.5V91H434V97.5H430.5V100H424V93.5H419Z" fill="black" stroke="black"/>
</svg>
